<?xml version="1.0" encoding="UTF-8"?>
<svg width="24px" height="24px" viewBox="0 0 24 24" version="1.1" xmlns="http://www.w3.org/2000/svg" xmlns:xlink="http://www.w3.org/1999/xlink">
    <!-- Generator: Sketch 62 (91390) - https://sketch.com -->
    <title>Indicator/Option1/FTR/24x24</title>
    <desc>Created with Sketch.</desc>
    <g id="Indicator/Option1/FTR/24x24" stroke="none" stroke-width="1" fill="none" fill-rule="evenodd">
        <g id="Group">
            <path d="M24,12 C24,18.627417 18.627417,24 12,24 C9.89798725,24 7.92220618,23.4595379 6.20403793,22.5099949 L7.68933577,21.0257749 C8.99460411,21.6502882 10.4564623,22 12,22 C17.5228475,22 22,17.5228475 22,12 C22,10.4564623 21.6502882,8.99460411 21.0257749,7.68933577 L22.5099949,6.20403793 C23.4595379,7.92220618 24,9.89798725 24,12 Z M12,-9.47390314e-15 C14.1024206,-9.47390314e-15 16.0785605,0.54067183 17.7969621,1.49055786 L16.3116662,2.97470461 C15.006144,2.34989079 13.5439327,2 12,2 C6.4771525,2 2,6.4771525 2,12 C2,13.5439327 2.34989079,15.006144 2.97470461,16.3116662 L1.49055786,17.7969621 C0.54067183,16.0785605 0,14.1024206 0,12 C0,5.372583 5.372583,-9.47390314e-15 12,-9.47390314e-15 Z" id="Combined-Shape" fill="#ffffff" fill-rule="nonzero"></path>
            <circle id="Oval" fill="#ffffff" cx="12" cy="12" r="5.33333333"></circle>
        </g>
    </g>
</svg>
