<?xml version="1.0" encoding="UTF-8"?>
<svg width="24px" height="24px" viewBox="0 0 24 24" version="1.1" xmlns="http://www.w3.org/2000/svg" xmlns:xlink="http://www.w3.org/1999/xlink">
    <!-- Generator: Sketch 62 (91390) - https://sketch.com -->
    <title>Indicator/Option1/BAV/24X24</title>
    <desc>Created with Sketch.</desc>
    <g id="Indicator/Option1/BAV/24X24" stroke="none" stroke-width="1" fill="none" fill-rule="evenodd">
        <g id="Group" fill-rule="nonzero">
            <path d="M24,12 C24,18.627417 18.627417,24 12,24 C9.89798725,24 7.92220618,23.4595379 6.20403793,22.5099949 L7.68933577,21.0257749 C8.99460411,21.6502882 10.4564623,22 12,22 C17.5228475,22 22,17.5228475 22,12 C22,10.4564623 21.6502882,8.99460411 21.0257749,7.68933577 L22.5099949,6.20403793 C23.4595379,7.92220618 24,9.89798725 24,12 Z M12,-9.47390314e-15 C14.1024206,-9.47390314e-15 16.0785605,0.54067183 17.7969621,1.49055786 L16.3116662,2.97470461 C15.006144,2.34989079 13.5439327,2 12,2 C6.4771525,2 2,6.4771525 2,12 C2,13.5439327 2.34989079,15.006144 2.97470461,16.3116662 L1.49055786,17.7969621 C0.54067183,16.0785605 0,14.1024206 0,12 C0,5.372583 5.372583,-9.47390314e-15 12,-9.47390314e-15 Z" id="Combined-Shape" fill="#ffffff"></path>
            <path d="M12,6.66666667 C14.9455187,6.66666667 17.3333333,9.05448133 17.3333333,12 C17.3333333,14.9455187 14.9455187,17.3333333 12,17.3333333 C9.05448133,17.3333333 6.66666667,14.9455187 6.66666667,12 C6.66666667,9.05448133 9.05448133,6.66666667 12,6.66666667 Z M12,8 C9.790861,8 8,9.790861 8,12 C8,14.209139 9.790861,16 12,16 C14.209139,16 16,14.209139 16,12 C16,9.790861 14.209139,8 12,8 Z" id="Oval" fill="#ffffff"></path>
        </g>
    </g>
</svg>
