<svg xmlns="http://www.w3.org/2000/svg" viewBox="0 0 512 512" fill="#fff"><path d="M400.4 160.3l-3.1-8.5-45.2 49-34-44.9 38.4-41.7-8.7-2.4c-28.2-7.7-58 .9-77.8 22.4-19.3 20.9-25.6 50.2-16.7 77.1L221 246.4l-27.9-32.3 2.9-33.8-54.7-33.8-17.2 16.5-17.3 16.8 35 53.5 37.8-5 33.5 26.7-89 96.6 55.8 51.4 67.2-72.9 52.3 50.9c4.7 4.6 13.5 9.9 23.7 9.9 7.1 0 14.9-2.6 22.4-9.9l7.1-6.9c.4-.4 10.2-10.1 10.2-23.3 0-8-3.4-15.4-10.2-21.9l-55-53.5 11.5-12.5c27.5 6.6 56.1-2 75.4-22.9 19.8-21.7 25.9-52.2 15.9-79.7zm-279.4 21l10.7-10.4 11-10.6 41.7 25.8-2.7 30.7-34.6 4.6-26.1-40.1zm223.8 155.3c4.5 4.4 6.8 9.1 6.9 14 0 8.6-6.8 15.5-6.9 15.5l-7.1 6.9c-14.8 14.4-29.2 1.5-30.7 0l-52.5-51.1 35.6-38.6 54.7 53.3zm31.6-104.3c-17.2 18.7-43.2 26-67.6 18.9l-3.3-.9-126.3 137-32.8-43.9 119.5-129.6-1.2-3.2c-9-23.8-3.9-50.3 13.4-69 14.8-16.1 36.2-23.7 57.6-21l-39.9 43.2 56.9 52.5 39.9-43.3c4.5 21.2-1.3 43.2-16.2 59.3z"/></svg>