<?xml version="1.0" encoding="utf-8"?>
<!-- Generator: Adobe Illustrator 26.0.1, SVG Export Plug-In . SVG Version: 6.00 Build 0)  -->
<svg version="1.1" id="Layer_1" xmlns="http://www.w3.org/2000/svg" xmlns:xlink="http://www.w3.org/1999/xlink" x="0px" y="0px"
	 viewBox="0 0 512 512" style="enable-background:new 0 0 512 512;" xml:space="preserve">
<g>
	<path d="M215.2,115.4l-74.9,81v200.1h231.4V115.4H215.2z M219.7,126.8v69.9h-64.5C155.2,196.7,219.7,126.8,219.7,126.8z
		 M360.7,385.5l-209.4-20V207.6h79.4v-81.2h130V385.5z"/>
	<path d="M214.7,347.3h-3.9c-1.1,0-2-0.3-2.9-0.9s-1.3-1.5-1.3-2.8c0-0.8,0.1-1.7,0.4-2.7c0.3-1.1,0.5-1.9,0.8-2.7l2.7-8.1h22.8
		l3.3,9.4c0.2,0.5,0.4,1.1,0.6,1.8s0.3,1.4,0.3,2.2c0,1.3-0.4,2.2-1.3,2.8c-0.9,0.5-1.8,0.8-2.7,0.8h-3.7v5h30.9v-5H259
		c-1.5,0-2.8-0.5-4-1.4c-1.1-0.9-2.2-2.7-3.1-5.3l-19.6-55.2h-12.8l-20.3,55.1c-1,2.8-2,4.6-3.2,5.5s-2.6,1.3-4.3,1.3h-1.1v5.2h24.1
		L214.7,347.3L214.7,347.3z M218.1,308.5c0.7-2.2,1.5-4.6,2.3-7.1s1.5-4.8,2.1-6.8c0.5,2.2,1.1,4.6,1.9,7.2s1.5,5,2.1,7.1l5,15.4
		h-18.9L218.1,308.5z"/>
	<g>
		<path d="M321.7,193.2c-3.8,10.9-8.9,20-15.5,27.5c8,5.8,17.8,10,29.4,12.6c-2.7,2.6-6.1,7.7-7.9,10.9
			c-12.4-3.2-22.4-8.2-30.7-14.9c-8.8,6.9-19.4,12-32.1,15.5c-1.3-2.8-4.8-8.3-7.1-11c12.3-2.7,22.3-6.9,30.4-12.9
			c-6.7-7.7-11.8-17-16-27.8h-12.7v-11.4h33.1c-0.8-3.2-2.3-7.3-3.8-10.5l12.5-3.7c2,3.8,4.3,8.8,5.1,12.2l-6.5,2h33.7v11.4H321.7z
			 M284.5,193.2c3.1,7.4,7.4,14,12.8,19.7c4.7-5.5,8.5-12,11.2-19.7H284.5z"/>
	</g>
	<g>
		<polygon points="195.8,277.8 184.8,277.8 184.8,225.5 232,225.5 232,236.5 195.8,236.5 		"/>
		<g>
			<polygon points="228.4,243.1 249.3,231 228.4,219 			"/>
		</g>
	</g>
	<g>
		<polygon points="329.4,324.2 282.3,324.2 282.3,313.2 318.4,313.2 318.4,271.9 329.4,271.9 		"/>
		<g>
			<polygon points="285.8,306.7 264.9,318.7 285.8,330.8 			"/>
		</g>
	</g>
</g>
</svg>
