<?xml version="1.0" encoding="utf-8"?>
<!-- Generator: Adobe Illustrator 26.0.1, SVG Export Plug-In . SVG Version: 6.00 Build 0)  -->
<svg version="1.1" id="Layer_1" xmlns="http://www.w3.org/2000/svg" xmlns:xlink="http://www.w3.org/1999/xlink" x="0px" y="0px"
	 viewBox="0 0 512 512" style="enable-background:new 0 0 512 512;" xml:space="preserve">
<path d="M267.9,123.4c0.4-1.1,0.6-2.3,0.6-3.5c0-6.5-6.5-11.8-14.5-11.8s-14.5,5.3-14.5,11.8c0,1.2,0.2,2.4,0.6,3.5H107.8v197.4
	h141.8v50.8L179.7,385l4.7,18.8l70.5-22l70.4,22.1l4.8-19l-69.5-13.3v-50.8h143.6V123.4H267.9z M393.2,309.8H118.8V134.4h274.4
	V309.8z"/>
<path d="M330.8,280.5V155.7h-25.7v125.7l-16.8,0.6v-72.4h-25.7V283l-16.8,0.6V182.8H220v101.8l-16.8,0.6V225h-25.7v61.2l-13.5,0.5
	v5.7h180.3V280L330.8,280.5z M183.1,230.7h14.4v54.7l-14.4,0.5V230.7z M225.7,188.5H240v95.4l-14.4,0.5V188.5L225.7,188.5z
	 M268.2,215.3h14.4v66.9l-14.4,0.5V215.3L268.2,215.3z M310.8,161.4h14.4v119.3l-14.4,0.5V161.4z"/>
</svg>
