<?xml version="1.0" encoding="utf-8"?>
<!-- Generator: Adobe Illustrator 25.4.1, SVG Export Plug-In . SVG Version: 6.00 Build 0)  -->
<svg version="1.1" id="Layer_1" xmlns="http://www.w3.org/2000/svg" xmlns:xlink="http://www.w3.org/1999/xlink" x="0px" y="0px"
	 viewBox="0 0 512 512" style="enable-background:new 0 0 512 512;" xml:space="preserve">
<g>
	<g>
		<path d="M371.54,399.1H140.46V112.9h231.08V399.1z M151.46,382.1l209.08,11V123.9H151.46V382.1z"/>
	</g>
	<g>
		<g>
			<g>
				<polygon points="235.45,228.24 181.92,228.24 181.92,179.75 233.98,179.75 233.98,173.72 175.9,173.72 175.9,234.27 
					241.48,234.27 241.48,214.87 235.45,214.87 				"/>
			</g>
			<g>
				<path d="M208.66,215.97l-10.79-18.9l-8.82,7.07l17.81,16.27l1.42,1.31l1.37-1.15l46.9-39.39l-9.31-9.48L208.66,215.97z"/>
			</g>
		</g>
		<g>
			<g>
				<polygon points="235.45,334.28 181.92,334.28 181.92,285.79 233.98,285.79 233.98,279.76 175.9,279.76 175.9,340.31 
					241.48,340.31 241.48,320.91 235.45,320.91 				"/>
			</g>
			<g>
				<path d="M208.66,322.01l-10.79-18.9l-8.82,7.07l17.81,16.27l1.42,1.32l1.37-1.15l46.9-39.39l-9.31-9.48L208.66,322.01z"/>
			</g>
		</g>
		<g>
			<rect x="271.49" y="187.87" width="64.61" height="9"/>
		</g>
		<g>
			<rect x="271.49" y="211.21" width="64.61" height="9"/>
		</g>
		<g>
			<rect x="271.49" y="293.59" width="64.61" height="9"/>
		</g>
		<g>
			<rect x="271.49" y="316.93" width="64.61" height="9"/>
		</g>
	</g>
</g>
</svg>
