<?xml version="1.0" encoding="utf-8"?>
<!-- Generator: Adobe Illustrator 25.4.1, SVG Export Plug-In . SVG Version: 6.00 Build 0)  -->
<svg version="1.1" id="Layer_1" xmlns="http://www.w3.org/2000/svg" xmlns:xlink="http://www.w3.org/1999/xlink" x="0px" y="0px"
	 viewBox="0 0 512 512" style="enable-background:new 0 0 512 512;" xml:space="preserve">
<style type="text/css">
	.st0{fill:#171716;}
</style>
<g>
	<g>
		<path class="st0" d="M256,409.22l-1.85-0.66c-46.59-16.61-80.67-46.64-101.29-89.27c-9.8-20.27-14.99-43.31-14.99-66.63V147.24
			l2.18-1.65c13.67-10.33,28.38-19.25,43.73-26.52c45.89-21.73,98.53-21.73,144.42,0c15.34,7.26,30.06,16.19,43.73,26.52l2.18,1.65
			v105.42c0,23.32-5.18,46.36-14.99,66.63c-20.62,42.62-54.7,72.66-101.29,89.27L256,409.22z M148.88,152.74v99.93
			c0,21.67,4.8,43.06,13.89,61.84c19.04,39.37,50.4,67.29,93.23,83.03c42.83-15.74,74.19-43.66,93.23-83.03
			c9.09-18.79,13.89-40.17,13.89-61.84v-99.93c-12.45-9.19-25.77-17.16-39.62-23.72c-42.9-20.31-92.11-20.31-135.01,0l0,0
			C174.64,135.57,161.33,143.55,148.88,152.74z"/>
	</g>
</g>
<polygon points="239.37,303.53 235.99,307.24 232.18,303.86 198.05,273.66 212.23,260.8 235.34,292.52 292.36,204.76 313.95,221.44 
	239.37,303.53 "/>
</svg>
