<?xml version="1.0" encoding="utf-8"?>
<!-- Generator: Adobe Illustrator 25.4.1, SVG Export Plug-In . SVG Version: 6.00 Build 0)  -->
<svg version="1.1" id="Layer_1" xmlns="http://www.w3.org/2000/svg" xmlns:xlink="http://www.w3.org/1999/xlink" x="0px" y="0px"
	 viewBox="0 0 512 512" style="enable-background:new 0 0 512 512;" xml:space="preserve">
<g>
	<path d="M179.53,115.45l-74.9,81v200.1h231.4v-281.1H179.53z M184.03,126.75v69.9h-64.5C119.53,196.65,184.03,126.75,184.03,126.75
		z M325.03,385.45l-209.4-20v-157.8h79.4v-81.2h130V385.45z"/>
	<path d="M144.83,239.2h149.7v11h-149.7V239.2z M144.83,274h95.8v11h-95.8L144.83,274z M144.83,308.9h58.5v11h-58.5V308.9z"/>
	<path d="M352.84,232.25v121.53l27.1,42.76l27.43-42.28l0-122.02H352.84z M396.37,243.25l0,98.95c-4.42-2.33-9.96-4.29-16.19-4.35
		c-6.52-0.05-12.03,1.7-16.34,3.85v-41.43h14.53v-11h-14.53v-12.31h14.53v-11h-14.53v-22.72H396.37z M365.58,353.35
		c3.21-2.17,8.08-4.5,14.26-4.5c0.08,0,0.16,0,0.23,0c5.78,0.05,10.98,2.72,14.42,5.04l-14.46,22.28L365.58,353.35z"/>
</g>
</svg>
