<?xml version="1.0" encoding="utf-8"?>
<!-- Generator: Adobe Illustrator 26.0.1, SVG Export Plug-In . SVG Version: 6.00 Build 0)  -->
<svg version="1.1" id="Layer_1" xmlns="http://www.w3.org/2000/svg" xmlns:xlink="http://www.w3.org/1999/xlink" x="0px" y="0px"
	 viewBox="0 0 512 512" style="enable-background:new 0 0 512 512;" xml:space="preserve">
<style type="text/css">
	.st0{fill:#231F20;}
</style>
<g>
	<g>
		<path class="st0" d="M390.2,421H121.8V91h268.5V421z M132.8,404l246.5,11V102H132.8V404z"/>
	</g>
	<path d="M157.8,219.4l45.4-34.8c2.3,1.5,5.2,2.5,8.2,2.5c3.1,0,5.9-0.9,8.3-2.5l43.3,27.5c0.6,7.7,7,13.7,14.8,13.7
		c8.3,0,14.9-6.6,14.9-14.9c0-2.1-0.4-4-1.3-5.8l52.6-53l0.4,0.4c0.4,5.2,2.2,11.8,4.9,19.7l4.5-4.5c-1-11.5,0-21.7,2.9-30.7
		l-2.2-2.2c-9,3-19.2,4-30.7,3.1l-4.5,4.5c8,2.8,14.5,4.4,19.7,4.8l0.3,0.3l-56.8,49.5c-1.5-0.5-3.1-0.8-4.8-0.8
		c-3.7,0-7,1.3-9.6,3.5l-41.9-27.2v-0.2c0-8.3-6.6-14.9-14.9-14.9s-14.9,6.6-14.9,14.9c0,0.7,0.1,1.5,0.2,2.2L155.4,217L157.8,219.4
		L157.8,219.4z"/>
	<g>
		<path d="M360.8,375.6H151.2V272.6h209.6V375.6z M162.1,364.7h187.9v-81.2H162.1V364.7z"/>
	</g>
</g>
</svg>
