<?xml version="1.0" encoding="utf-8"?>
<!-- Generator: Adobe Illustrator 26.0.1, SVG Export Plug-In . SVG Version: 6.00 Build 0)  -->
<svg version="1.1" id="Layer_1" xmlns="http://www.w3.org/2000/svg" xmlns:xlink="http://www.w3.org/1999/xlink" x="0px" y="0px"
	 viewBox="0 0 512 512" style="enable-background:new 0 0 512 512;" xml:space="preserve">
<style type="text/css">
	.st0{fill:#231F20;}
</style>
<g>
	<path class="st0" d="M389.8,420.7H121.3v-330h268.5V420.7z M132.3,403.7l246.5,11v-313H132.3V403.7z"/>
</g>
<g>
	<path class="st0" d="M323.8,348.8H187.3l68.3-117.6L323.8,348.8z M206.4,337.8h98.3l-49.2-84.7L206.4,337.8z"/>
</g>
<g>
	<path class="st0" d="M255.6,290.2c-36.9,0-67-30-67-67s30-67,67-67c36.9,0,67,30,67,67S292.5,290.2,255.6,290.2z M255.6,167.2
		c-30.9,0-56,25.1-56,56s25.1,56,56,56c30.9,0,56-25.1,56-56S286.4,167.2,255.6,167.2z"/>
</g>
</svg>
