<?xml version="1.0" encoding="utf-8"?>
<!-- Generator: Adobe Illustrator 25.4.1, SVG Export Plug-In . SVG Version: 6.00 Build 0)  -->
<svg version="1.1" id="Layer_1" xmlns="http://www.w3.org/2000/svg" xmlns:xlink="http://www.w3.org/1999/xlink" x="0px" y="0px"
	 viewBox="0 0 512 512" style="enable-background:new 0 0 512 512;" xml:space="preserve">
<path d="M315.67,244.29h-0.8V97.09h-138.4l-66,71.7v176.8h121.8c3.2,16.5,11.1,31.6,23.2,43.8c16,16.1,37.4,24.9,60.1,24.9
	c46.9,0,85-38.1,85-85C400.67,282.39,362.57,244.29,315.67,244.29L315.67,244.29z M179.07,110.49v56.8h-52.3
	C126.77,167.29,179.07,110.49,179.07,110.49z M121.57,314.59v-136.3h68.6v-70.2h113.7v137.1c-41.2,5.8-73.1,41.3-73.1,84
	c0,1.5,0,3,0.1,4.5L121.57,314.59L121.57,314.59z M315.67,403.19c-19.8,0-38.4-7.7-52.3-21.7s-21.6-32.5-21.6-52.3
	c0-40.7,33.2-73.9,73.9-73.9c40.8,0,74,33.2,74,73.9C389.67,370.09,356.57,403.19,315.67,403.19z"/>
<path d="M146.47,271.39h50.1v11h-50.1V271.39z M146.47,240.79h83.1v11h-83.1V240.79z M146.47,210.29h130.8v11h-130.8V210.29z"/>
<g>
	<g>
		<path d="M335.13,370.55c-1.13,0-2.31-0.03-3.6-0.09c-8.69-0.41-20.81-2.33-36.03-5.69l1.29-5.86c14.89,3.29,26.67,5.15,35.02,5.55
			c1.19,0.06,2.28,0.08,3.31,0.08c6.87,0,9.63-1.23,10.74-2.27c1.33-1.25,1.28-3.43,0.99-5.04c-0.15-0.83-0.38-1.66-0.64-2.34
			l-0.9-2.34l2.14-1.3c0.51-0.31,1-0.72,1.48-1.24c2.75-3.15,1.57-8.49,1.3-9.52l-0.42-1.66l1.41-1.41
			c0.08-0.07,0.16-0.14,0.22-0.22l0.11-0.13c2.61-2.99,1.86-7.83,1.42-9.76l-0.48-2.09l1.83-1.13c0.22-0.14,0.43-0.29,0.61-0.46
			c1.13-1,1.65-2.14,1.65-3.6c-0.05-3.08-0.44-4.59-1.42-5.51c-2.54-2.42-10.45-2.49-26.16-1.74l-4.19,0.2l1.17-4.03
			c1.81-6.26,1.02-11.13,0.03-14.11c-1.28-3.84-3.77-6.94-6.49-8.1c-2.39-1-4.45-0.23-5.71,2.12c0.21,8.13-2.86,15.13-9.13,20.81
			c-2.02,1.84-4.34,3.48-7.09,5l-2.9-5.25c2.33-1.29,4.28-2.65,5.95-4.18c4.97-4.51,7.38-10.04,7.16-16.44l-0.08-1.18l0.54-1.09
			c2.61-5.46,8.08-7.62,13.59-5.31c4.34,1.84,8.01,6.23,9.85,11.74c1.03,3.11,1.9,7.81,0.95,13.66c16.38-0.68,22.8-0.11,26.64,3.55
			c2.93,2.75,3.24,6.51,3.3,9.81c0,3.12-1.18,5.83-3.41,7.91c0.48,3.32,0.53,8.64-2.78,12.76c0.54,3.16,0.84,9.01-2.98,13.38
			c-0.3,0.33-0.61,0.64-0.92,0.92c0.1,0.41,0.19,0.83,0.27,1.25c0.76,4.35-0.23,8.07-2.8,10.47
			C347.13,369.31,342.41,370.55,335.13,370.55z"/>
	</g>
	<g>
		<path d="M299.15,370.55h-25.03v-67.82h25.03V370.55z M280.12,361.55l13.03,5v-57.82h-13.03V361.55z"/>
	</g>
	<g>
		<path d="M341.91,330.77c-0.91,0-1.72-0.05-2.43-0.15l0.84-5.94c1.29,0.18,4.01,0.19,9.63-0.81l0.39-0.07
			c2.21-0.37,4.39-1.65,6.15-2.69c0.31-0.18,0.6-0.35,0.87-0.51l2.98,5.21c-0.25,0.14-0.52,0.3-0.8,0.47
			c-2.07,1.22-4.9,2.89-8.21,3.44l-0.32,0.06C347.25,330.43,344.25,330.77,341.91,330.77z"/>
	</g>
	<g>
		<path d="M338.73,343.09c-0.91,0-1.72-0.05-2.43-0.15l0.84-5.94c1.29,0.18,4,0.19,9.63-0.81l0.39-0.07
			c2.21-0.37,4.4-1.66,6.16-2.69c0.3-0.18,0.59-0.35,0.86-0.5l2.98,5.21c-0.25,0.14-0.51,0.3-0.79,0.46
			c-2.07,1.22-4.91,2.89-8.22,3.44l-0.32,0.06C344.07,342.76,341.06,343.09,338.73,343.09z"/>
	</g>
	<g>
		<path d="M336.34,356.71c-0.91,0-1.72-0.05-2.43-0.15l0.84-5.94c1.29,0.18,4,0.19,9.62-0.81l0.4-0.07
			c2.21-0.37,4.39-1.65,6.15-2.69c0.31-0.18,0.6-0.35,0.87-0.51l2.98,5.21c-0.25,0.14-0.52,0.3-0.8,0.47
			c-2.07,1.22-4.9,2.89-8.21,3.44l-0.33,0.06C341.67,356.38,338.67,356.71,336.34,356.71z"/>
	</g>
</g>
</svg>
