<svg xmlns="http://www.w3.org/2000/svg" viewBox="0 0 512 512"><path d="M402.9 317.1V140H155.6v194.3c0 .4 0 .9-.1 1.5 0 .5-.1 1.1-.1 1.6-.1 1.1-.3 2.1-.5 3.2-.4 2.1-.9 4.2-1.6 6.1-.7 1.9-1.6 3.7-2.6 5.3-1.1 1.6-2.3 2.9-3.7 4-2.4 1.9-5.5 2.9-8.9 3.1-.6-.2-1.1-.4-1.7-.7-3-1.3-5.7-3-7.9-5.1-2.2-2.1-4-4.6-5.2-7.4-1.2-2.8-1.9-5.9-2.1-9.2l-.1-2.5V207.6l24.5 6.4v-26.8l-30 7.9-6.5 1.7 1 3.8V334.2c0 1 .1 2.1.1 3.2.2 4.3 1.2 8.7 2.9 12.9 1.8 4.2 4.5 8 7.8 11.1 3.3 3.1 7.1 5.4 11.1 7.1 2 .9 4 1.6 6.1 2.1 1 .3 2.1.5 3.1.7.5.1 1.1.2 1.6.3l.8.1c.3 0 .5.1 1 .1H363.2c1.4-.1 2.7-.1 4.1-.2l2-.3 1-.1 1-.2 2-.4c.7-.2 1.3-.4 2-.6 1.4-.4 2.7-1 4-1.5.6-.3 1.3-.6 1.9-1l.9-.5.9-.6c2.5-1.5 4.6-3.3 6.6-5.4 2-2 3.6-4.3 5.1-6.6 1.4-2.3 2.6-4.8 3.6-7.2 1.9-5 3.1-10 3.8-15.2.3-2.6.5-5.1.6-7.8l.2-7.1zm-11.5 13.7c-.6 4.3-1.6 8.6-3.1 12.5-.8 2-1.7 3.8-2.7 5.6-1.1 1.7-2.2 3.3-3.6 4.7-1.4 1.4-2.8 2.7-4.5 3.6l-.6.4-.6.3c-.4.2-.8.4-1.3.7-.9.3-1.8.8-2.7 1-.5.1-.9.3-1.4.4l-1.5.3-.7.2-.8.1-1.5.2c-1 .1-2 .1-3.1.2h-3.6l-196.1-10.5s1.6-5.3 2.1-7.9c.2-1.3.4-2.7.6-4 .1-.7.1-1.3.2-2 0-.7.1-1.3.1-2.2V151h225.3v173.2c0 2.2-.2 4.4-.5 6.6z"/><path d="M199.8 195.2h160.3v11H199.8zM290 242.5h70.1v11H290zM290 279.4h70.1v11H290zM290 316.3h49.6v11H290zM199.5 327.5h67.7v-85.3h-67.7v85.3zm11-74.3h45.7v63.3h-45.7v-63.3z"/></svg>