<svg xmlns="http://www.w3.org/2000/svg" viewBox="0 0 512 512"><path d="M256 78.5c-97.9 0-177.5 79.6-177.5 177.5S158.1 433.5 256 433.5 433.5 353.9 433.5 256 353.9 78.5 256 78.5zm0 344c-91.8 0-166.5-74.7-166.5-166.5S164.2 89.5 256 89.5 422.5 164.2 422.5 256 347.8 422.5 256 422.5z"/><path d="M292.4 127.8l-37.6 102.6c-13.6.6-24.5 11.9-24.5 25.7 0 1.4.1 2.7.3 4l-58 35.7 5.2 9.7 62.9-28.8c4.3 3.2 9.6 5.1 15.3 5.1 14.2 0 25.7-11.5 25.7-25.7 0-6.6-2.5-12.6-6.6-17.2L303 131l-10.6-3.2zM256 270.7c-8.1 0-14.7-6.6-14.7-14.7s6.6-14.7 14.7-14.7 14.7 6.6 14.7 14.7-6.6 14.7-14.7 14.7z"/><circle cx="256" cy="118.4" r="13"/><circle cx="256" cy="393.6" r="13"/><circle cx="396.9" cy="253" r="13"/><circle cx="115" cy="253" r="13"/></svg>