<?xml version="1.0" encoding="UTF-8"?>
<svg xmlns="http://www.w3.org/2000/svg" viewBox="0 0 512 512"><path d="M188.6 302.2c14.6 0 26.5-11.9 26.5-26.5s-11.9-26.5-26.5-26.5-26.5 11.9-26.5 26.5 11.9 26.5 26.5 26.5zm0-42c8.5 0 15.5 7 15.5 15.5s-7 15.5-15.5 15.5-15.5-7-15.5-15.5 7-15.5 15.5-15.5z" style="fill: #115c36;"/><path d="M379.2 223.6H132.8v159.1h246.4V223.6zm-11 11V302L319 272.2l-3.6-2.2-3.1 2.5-54.3 45.9-23.9-16.8-3.9-2.8-3.4 2.6-83 63.7V234.6h224.4zM154.1 371.7l75.7-58 48.3 49.3 16.2-19.1-27-18.9 48.7-41.2 51.7 38.4.4-.6v50.2h-214z" style="fill: #115c36;"/><path d="M375.3 196.5l-115.9-95.7-123.2 95.7h-30.7v213.2h301V196.5h-31.2zm-116.1-81.7l98.9 81.7H154.2l105-81.7zm136.3 283.9h-279V207.5h279v191.2z" style="fill: #115c36;"/></svg>
