<?xml version="1.0" encoding="UTF-8"?>
<svg xmlns="http://www.w3.org/2000/svg" viewBox="0 0 512 512"><path d="M321.8 193.9L253.4 70.7 185 194v198.5c0 .4.5 43 46.4 43h44.1c.5 0 11.6-.1 22.7-5.2 10.8-4.9 23.7-15.5 23.7-37.8V197.7l-.1-3.8zm-38.5-46.8h-59.6l29.8-53.8 29.8 53.8zm-65.8 11h71.8l21.5 38.8v144.5c-2.6 2.6-9.8 6.2-23.3 8.7L282 207.5h-11l-5.7 144.9c-3.7.2-7.7.3-11.9.3s-8.1-.1-11.9-.3L236 207.5h-11l-5.6 142.3c-13.6-2.5-21.5-6.1-23-7.9l-.4.3V196.8l21.5-38.7zM294 420.2c-9 4.2-18.4 4.3-18.4 4.3h-44.1c-14.6 0-25-5.2-30.8-15.5-4.5-8-4.6-16.4-4.6-16.5v-38.1c12.1 5.6 33.9 9.3 57.5 9.3 25.1 0 45.5-3.4 57.5-9.3v38.1c-.2 13.1-5.9 22.4-17.1 27.7z" style="fill: #115c36;"/></svg>
