<?xml version="1.0" encoding="UTF-8"?>
<svg xmlns="http://www.w3.org/2000/svg" viewBox="0 0 512 512"><path d="M377.4 383.3l-2.7-5.4-12.5 8.3-14.1-33c23.5-22.3 28.7-59 10.6-87.3l-.6-.9c-5.7-8.7-13.2-15.8-21.9-21V60.8H179.7l-74.9 81v200.1h138.8c13.3 19.5 35 30.2 57.1 30.2 9.1 0 18.4-1.8 27.1-5.6l24 26.6-10.7 7.2 30 46.7.4.6 3.6 3.6 32.2-21.5-29.9-46.4zM184.2 72.2V142h-64.6l64.6-69.8zM115.8 153h79.4V71.8h130v166.8c-3.4-1.3-6.8-2.3-10.4-3-18-3.8-36.4-.3-51.8 9.7-26 16.9-36.8 48.6-28.6 76.9l-118.6-11.3V153zM252 334.7c-17.4-26.8-9.7-62.7 17-80.1 9.5-6.2 20.4-9.4 31.6-9.4 4 0 8 .4 12 1.2 15.1 3.2 28.1 12 36.6 25l.4.5c17.2 26.8 9.4 62.6-17.3 79.9-27 17.4-63 9.7-80.3-17.1zm104.1 68.8l14.8-9.9 21.2 32.9-14.8 9.9-21.2-32.9z" style="fill: #115c36;"/><path d="M145 189.6h149.7v11H145zM145 224.4h95.8v11H145zM145 259.2h58.5v11H145z" style="fill: #115c36;"/></svg>
