<?xml version="1.0" encoding="utf-8"?>
<!-- Generator: Adobe Illustrator 26.0.1, SVG Export Plug-In . SVG Version: 6.00 Build 0)  -->
<svg version="1.1" id="Layer_1" xmlns="http://www.w3.org/2000/svg" xmlns:xlink="http://www.w3.org/1999/xlink" x="0px" y="0px"
	 viewBox="0 0 512 512" style="enable-background:new 0 0 512 512;" xml:space="preserve">
<path d="M267.9,123.4c0.4-1.1,0.6-2.3,0.6-3.5c0-6.5-6.5-11.8-14.5-11.8s-14.5,5.3-14.5,11.8c0,1.2,0.2,2.4,0.6,3.5H107.8v197.4
	h141.8v50.8L179.7,385l4.7,18.8l70.5-22l70.4,22.1l4.8-19l-69.5-13.3v-50.8h143.6V123.4H267.9z M393.2,309.8H118.8V134.4h274.4
	V309.8z"/>
<g>
	<path d="M261.6,289H138.9V155.2h122.7V289z M149.9,278.3h100.7V165.9H149.9V278.3z"/>
</g>
<rect x="286.8" y="196.3" width="84" height="11"/>
<rect x="286.8" y="237.1" width="84" height="11"/>
<rect x="286.8" y="278" width="84" height="11"/>
<rect x="323.2" y="118.8" transform="matrix(2.085757e-03 -1 1 2.085757e-03 167.2633 489.2001)" width="11" height="84"/>
</svg>
