<?xml version="1.0" encoding="utf-8"?>
<!-- Generator: Adobe Illustrator 25.4.1, SVG Export Plug-In . SVG Version: 6.00 Build 0)  -->
<svg version="1.1" id="Layer_1" xmlns="http://www.w3.org/2000/svg" xmlns:xlink="http://www.w3.org/1999/xlink" x="0px" y="0px"
	 viewBox="0 0 512 512" style="enable-background:new 0 0 512 512;" xml:space="preserve">
<g>
	<g>
		<path d="M214.26,198.91c14.6,0,26.5-11.9,26.5-26.5s-11.9-26.5-26.5-26.5s-26.5,11.9-26.5,26.5S199.66,198.91,214.26,198.91z
			 M214.26,156.91c8.5,0,15.5,7,15.5,15.5s-7,15.5-15.5,15.5s-15.5-7-15.5-15.5S205.76,156.91,214.26,156.91z"/>
		<path d="M393.86,97.76h-246.4v316.48h246.4V97.76z M382.86,108.64v224.9l-49.2-29.8l-3.6-2.2l-3.1,2.5l-54.3,45.9l-23.9-16.8
			l-3.9-2.8l-3.4,2.6l-83,63.7v-288H382.86z M168.76,403.24l75.7-58l48.3,49.3l16.2-19.1l-27-18.9l48.7-41.2l51.7,38.4l0.4-0.6v50.2
			h-214L168.76,403.24z"/>
	</g>
	<g>
		<path d="M158.46,414.24h-40.31V97.76h40.31V414.24z M129.14,403.72h18.31V108.28h-18.31V403.72z"/>
	</g>
</g>
</svg>
