<?xml version="1.0" encoding="utf-8"?>
<!-- Generator: Adobe Illustrator 25.4.1, SVG Export Plug-In . SVG Version: 6.00 Build 0)  -->
<svg version="1.1" id="Layer_1" xmlns="http://www.w3.org/2000/svg" xmlns:xlink="http://www.w3.org/1999/xlink" x="0px" y="0px"
	 viewBox="0 0 512 512" style="enable-background:new 0 0 512 512;" xml:space="preserve">
<style type="text/css">
	.st0{fill:none;}
	.st1{fill:#231F20;}
</style>
<g>
	<g>
		<path d="M354.22,379.23l-37.46-63.61l-27.37-14.03l-1.33,30.59l37.61,63.87L354.22,379.23L354.22,379.23z M328.05,386.88
			l-30.5-51.79c3.03-0.14,6.54-0.82,9.82-2.71c3.43-1.99,5.77-4.59,7.37-7.05l12.77,21.68l-7.61,4.48l3.39,5.76l7.61-4.48l3.8,6.45
			l-7.61,4.48l3.39,5.76l7.61-4.48l7.01,11.89L328.05,386.88L328.05,386.88z M310.24,319.76c-1.01,2.13-2.85,4.84-6.08,6.75
			c-0.04,0.03-0.08,0.05-0.12,0.07c-3.04,1.76-6.59,1.96-9.1,1.81l0.7-16.12L310.24,319.76z"/>
	</g>
	<g>
		<path class="st0" d="M149.06,351.61v-55.07H259.7c13.92-15.56,34.13-25.38,56.6-25.38c3.3,0,6.54,0.23,9.73,0.64V99.95H130.76
			V364.2l113.32,6.38c-1.96-6.03-3.2-12.39-3.58-18.97H149.06z M287.98,273.38H166.23v-9h121.75V273.38z M287.98,245.56H166.23v-9
			h121.75V245.56z M266.49,151.07h28.56v62.33h-28.56V151.07z M231.57,173.48h28.56v39.92h-28.56V173.48z M196.65,118.45h28.56
			v94.95h-28.56V118.45z M161.73,142.55h28.56v70.85h-28.56V142.55z"/>
		<path class="st0" d="M326.02,282.9c-3.17-0.48-6.42-0.73-9.73-0.73c-15.39,0-29.54,5.39-40.68,14.38h37.69v55.07h-61.78
			c0.47,6.9,2.03,13.5,4.5,19.64l70,3.94V282.9z"/>
		<path class="st0" d="M261.05,381.2c11.46,18.5,31.93,30.86,55.25,30.86c35.81,0,64.94-29.13,64.94-64.94
			c0-28.56-18.54-52.86-44.22-61.53v95.62H261.05z"/>
		<rect x="170.73" y="151.55" class="st0" width="10.56" height="52.85"/>
		<rect x="275.49" y="160.07" class="st0" width="10.56" height="44.33"/>
		<rect x="240.57" y="182.48" class="st0" width="10.56" height="21.92"/>
		<rect x="205.65" y="127.45" class="st0" width="10.56" height="76.95"/>
		<path class="st0" d="M158.06,342.61h82.44c0.8-13.63,5.21-26.3,12.29-37.07h-94.73V342.61z"/>
		<path class="st0" d="M304.3,342.61v-37.07h-37.86c-8.51,10.19-13.95,23.02-14.92,37.07H304.3z"/>
		<path class="st1" d="M130.76,364.2V99.95h195.26v171.86c3.76,0.48,7.43,1.24,11,2.25V88.95H119.76V381.2h128.7
			c-1.72-3.4-3.19-6.95-4.38-10.62L130.76,364.2z"/>
		<path class="st1" d="M190.29,142.55h-28.56v70.85h28.56V142.55z M181.29,204.4h-10.56v-52.85h10.56V204.4z"/>
		<path class="st1" d="M225.21,118.45h-28.56v94.95h28.56V118.45z M216.21,204.4h-10.56v-76.95h10.56V204.4z"/>
		<path class="st1" d="M260.13,173.48h-28.56v39.92h28.56V173.48z M251.13,204.4h-10.56v-21.92h10.56V204.4z"/>
		<path class="st1" d="M295.05,151.07h-28.56v62.33h28.56V151.07z M286.05,204.4h-10.56v-44.33h10.56V204.4z"/>
		<rect x="166.23" y="236.56" class="st1" width="121.75" height="9"/>
		<rect x="166.23" y="264.38" class="st1" width="121.75" height="9"/>
		<path class="st1" d="M240.5,342.61h-82.44v-37.07h94.73c2.08-3.17,4.39-6.18,6.91-9H149.06v55.07h91.44
			c-0.09-1.49-0.14-2.99-0.14-4.5S240.41,344.1,240.5,342.61z"/>
		<path d="M251.53,342.61c0.97-14.05,6.41-26.88,14.92-37.07h-13.66c-7.08,10.77-11.49,23.44-12.29,37.07H251.53z"/>
		<path d="M259.7,296.54h15.91c11.14-8.98,25.29-14.38,40.68-14.38c3.31,0,6.55,0.25,9.73,0.73v-11.09
			c-3.19-0.41-6.43-0.64-9.73-0.64C293.83,271.17,273.62,280.98,259.7,296.54z"/>
		<path d="M240.5,351.61c0.39,6.58,1.62,12.94,3.58,18.97l11.94,0.67c-2.47-6.14-4.02-12.75-4.5-19.64H240.5z"/>
		<path d="M337.02,274.06v11.51c25.67,8.67,44.22,32.97,44.22,61.53c0,35.81-29.13,64.94-64.94,64.94
			c-23.32,0-43.79-12.36-55.25-30.86h-12.58c12.51,24.8,38.21,41.86,67.83,41.86c41.88,0,75.94-34.07,75.94-75.94
			C392.24,312.42,368.85,283.11,337.02,274.06z"/>
		<path d="M256.02,371.25l-11.94-0.67c1.2,3.67,2.67,7.21,4.38,10.62h12.58C259.1,378.05,257.42,374.72,256.02,371.25z"/>
		<path d="M326.02,282.9c3.79,0.57,7.46,1.48,11,2.68v-11.51c-3.57-1.01-7.24-1.77-11-2.25V282.9z"/>
		<path d="M251.53,342.61H240.5c-0.09,1.49-0.14,2.99-0.14,4.5s0.06,3.01,0.14,4.5h11.03c-0.1-1.49-0.17-2.99-0.17-4.5
			S251.42,344.1,251.53,342.61z"/>
		<path d="M252.79,305.54h13.66c2.75-3.29,5.82-6.31,9.17-9H259.7C257.18,299.36,254.87,302.37,252.79,305.54z"/>
	</g>
</g>
</svg>
