<?xml version="1.0" encoding="utf-8"?>
<!-- Generator: Adobe Illustrator 26.0.1, SVG Export Plug-In . SVG Version: 6.00 Build 0)  -->
<svg version="1.1" id="Layer_1" xmlns="http://www.w3.org/2000/svg" xmlns:xlink="http://www.w3.org/1999/xlink" x="0px" y="0px"
	 viewBox="0 0 512 512" style="enable-background:new 0 0 512 512;" xml:space="preserve">
<path d="M134.1,123.3v265.4h245.2V123.3H134.1z M368.3,377.7l-223.2-10V134.3h223.2V377.7z"/>
<rect x="268.2" y="260.1" width="84" height="11"/>
<rect x="268.2" y="297.3" width="84" height="11"/>
<g>
	<path d="M352.2,199.1H162.3v-50.6h189.9V199.1z M173.2,186.8h168.1v-25.9H173.2V186.8z"/>
</g>
<rect x="268.2" y="334.5" width="84" height="11"/>
<rect x="304.7" y="186.3" transform="matrix(2.085757e-03 -1 1 2.085757e-03 81.2618 538.0314)" width="11" height="84"/>
<rect x="162.3" y="260.1" width="84" height="11"/>
<rect x="162.3" y="297.3" width="84" height="11"/>
<rect x="162.3" y="334.5" width="84" height="11"/>
<rect x="198.8" y="186.3" transform="matrix(2.085757e-03 -1 1 2.085757e-03 -24.4339 432.1151)" width="11" height="84"/>
</svg>
