<?xml version="1.0" encoding="utf-8"?>
<!-- Generator: Adobe Illustrator 26.0.1, SVG Export Plug-In . SVG Version: 6.00 Build 0)  -->
<svg version="1.1" id="Layer_1" xmlns="http://www.w3.org/2000/svg" xmlns:xlink="http://www.w3.org/1999/xlink" x="0px" y="0px"
	 viewBox="0 0 512 512" style="enable-background:new 0 0 512 512;" xml:space="preserve">
<path d="M134.1,123.3v265.4h245.2V123.3H134.1z M368.3,377.7l-223.2-10V134.3h223.2V377.7z"/>
<path d="M274.8,249.7h77.4v11h-77.4V249.7z M274.8,295h77.4v11h-77.4V295z M161.2,337.5h191v11h-191L161.2,337.5z M162.3,306h82.8
	v-56.3h-82.8V306z M173.3,260.7h60.8V295h-60.8V260.7z"/>
<g>
	<path d="M352.2,199.1H162.3v-50.6h189.9V199.1z M173.2,186.8h168.1v-25.9H173.2V186.8z"/>
</g>
<g>
	<rect x="162.3" y="216.1" width="189.9" height="11"/>
</g>
</svg>
