<svg xmlns="http://www.w3.org/2000/svg" viewBox="0 0 512 512"><path d="M394.4 207.9L329 228v-32.4H117.6V320h76.8l-33 70.2 25.7 9.3 20.6-79.4h33.1l20.6 79.4 25.7-9.3L254 320h75.1v-38l65.4 22.1v-96.2zM318.1 309H128.6V206.6h189.5V309zm65.3-20.2l-54.2-18.3v-31.1l54.2-16.6v66zM176.7 174.6c10.5 3.7 21.7 3.2 31.8-1.6 5.8-2.8 10.9-6.8 14.8-11.8 4.8 6.1 11.2 10.7 18.7 13.4 4.6 1.6 9.3 2.5 14.1 2.5 6.1 0 12.1-1.3 17.7-4 14.4-6.8 23.8-21.5 23.8-37.5 0-22.9-18.7-41.6-41.6-41.6-12.8 0-24.8 6-32.6 15.7-4.8-6.1-11.2-10.7-18.6-13.4-10.5-3.7-21.7-3.2-31.8 1.5-10 4.7-17.6 13.1-21.4 23.6-3.7 10.5-3.2 21.7 1.5 31.8 4.8 10.1 13.2 17.7 23.6 21.4zM162 125.2c2.8-7.7 8.3-13.8 15.7-17.3 7.4-3.5 15.7-3.9 23.4-1.1 7.7 2.8 13.8 8.3 17.3 15.7l5 10.5 5-10.5c5.1-10.6 15.9-17.5 27.6-17.5 16.9 0 30.6 13.7 30.6 30.6 0 11.8-6.8 22.6-17.4 27.5-7.4 3.5-15.7 3.9-23.4 1.1-7.7-2.8-13.9-8.3-17.4-15.7l-5-10.5-5 10.5c-3 6.3-8.2 11.5-14.6 14.6-15.2 7.2-33.5.7-40.7-14.6-3.5-7.3-3.9-15.6-1.1-23.3z"/></svg>