<?xml version="1.0" encoding="utf-8"?>
<!-- Generator: Adobe Illustrator 24.2.1, SVG Export Plug-In . SVG Version: 6.00 Build 0)  -->
<svg version="1.1" id="Layer_3" xmlns="http://www.w3.org/2000/svg" xmlns:xlink="http://www.w3.org/1999/xlink" x="0px" y="0px"
	 viewBox="0 0 24 24" style="enable-background:new 0 0 24 24;" xml:space="preserve">
<style type="text/css">
	.st0{fill:#FFFFFF;}
</style>
<g>
	<path class="st0" d="M22.5,20.5h-1v-1c0-0.3-0.2-0.5-0.5-0.5h-1v-7.8c0-0.7-0.6-1.3-1.3-1.3s-1.3,0.6-1.3,1.3V19h-11v-7.8
		c0-0.7-0.6-1.3-1.3-1.3S4,10.6,4,11.3V19H3c-0.3,0-0.5,0.2-0.5,0.5v1h-1C1.2,20.5,1,20.7,1,21v1h22v-1C23,20.7,22.8,20.5,22.5,20.5
		z"/>
	<polygon class="st0" points="10.5,16.5 10.5,12 7.5,10.5 7.5,18 	"/>
	<polygon class="st0" points="16.5,18 16.5,10.5 13.5,12 13.5,16.5 	"/>
	<path class="st0" d="M3.5,9h16.9c1,0,1.4-1.2,0.6-1.8l-8.5-6.3c-0.4-0.3-0.8-0.3-1.2,0L2.9,7.2C2.2,7.8,2.6,9,3.5,9z M12,3.5l4.5,3
		h-9L12,3.5z"/>
</g>
</svg>
