<?xml version="1.0" encoding="utf-8"?>
<!-- Generator: Adobe Illustrator 18.1.1, SVG Export Plug-In . SVG Version: 6.00 Build 0)  -->
<svg version="1.1" id="Layer_1" xmlns="http://www.w3.org/2000/svg" xmlns:xlink="http://www.w3.org/1999/xlink" x="0px" y="0px"
	 viewBox="69 -25 110 23" enable-background="new 69 -25 110 23" xml:space="preserve">
<path fill="#FFFFFF" d="M92.7-2h0.2l7.8-19.5c0.8-1.9,1.5-2.8,2.2-3.2v-0.2h-4.7v0.2c1,0.5,1.2,2,0.5,3.7L93.9-9l-6.5-16h-0.1
	L80.3-9l-4.9-12.6c-0.6-1.5-0.4-2.6,0.5-3.2V-25H69v0.2c0.7,0.4,1.3,1.2,1.9,2.8L79-2h0.2L86-18.2L92.7-2z M143.6-13.2v-6.3h6.6
	c3,0,4.2,0.5,5.3,2l0.2-0.1l-0.4-3.5h-16.6l0,0.1c1,0.6,1.3,1.5,1.3,2.8v12.6c0,1.3-0.3,2.2-1.3,2.8l0,0.2h17.5l0.6-3.8l-0.2-0.1
	c-1.1,1.5-2.4,2.3-5.4,2.3h-7.6v-7.5h5.1c2.2,0,3.3,0.4,3.8,1.3h0.2v-4l-0.2,0c-0.6,0.9-1.7,1.3-3.8,1.3L143.6-13.2
	C143.6-13.2,143.6-13.2,143.6-13.2z M165.8-2.8l0,0.2h6.4v-0.2c-1-0.6-1.4-1.5-1.4-3.1v-4.3l5.6-8c1-1.5,1.9-2.4,2.6-2.7v-0.1h-5
	v0.1c0.9,0.5,1,1.8,0.1,3.1l-4.1,5.9l-4.5-6.7c-0.7-1-0.6-1.9,0.3-2.4v-0.1h-7v0.1c0.8,0.4,1.4,0.8,2.2,2.1l6.2,8.8v4.1
	C167.2-4.4,166.8-3.4,165.8-2.8 M135-2.6l0.9-3.9l-0.2-0.1c-1.1,1.7-2.8,2.4-5.2,2.4h-7.2v-13.6c0-1.5,0.4-2.5,1.5-3.1v-0.1h-6.3
	l0,0.1c1,0.6,1.3,1.5,1.3,2.8v12.6c0,1.3-0.3,2.2-1.3,2.8l0,0.2L135-2.6L135-2.6z M106.9-5.8c0,1.4-0.3,2.4-1.3,2.9v0.2h6.3v-0.2
	c-1-0.6-1.3-1.5-1.3-2.9V-18c0-1.4,0.3-2.3,1.3-2.9v-0.1h-6.3v0.1c1,0.6,1.3,1.5,1.3,2.9L106.9-5.8L106.9-5.8z"/>
</svg>
