<svg xmlns="http://www.w3.org/2000/svg" viewBox="0 0 193.78 18.164">
  <title>wol-logo</title><path fill="#ffffff" d="M15.963,14.563H12.323L9.782,5.521,7.222,14.563H3.581L0,.44H3.541l2.081,9.722L8.182.44h3.141l2.641,9.722L16.023.44h3.521Z"/><path fill="#ffffff" d="M20.96,2.82V.44h3.061V2.82Zm0,11.743V4.121h3.061V14.563Z"/><path fill="#ffffff" d="M26.8,14.563V.44H29.86V14.563Z"/><path
    fill="#ffffff"
    d="M35.04,9.982v.12a2.349,2.349,0,0,0,2.38,2.48,2.79,2.79,0,0,0,2.641-1.86l2.321,1.2a5.881,5.881,0,0,1-5.2,3.021c-3.181,0-5.281-2.021-5.281-5.4,0-2.621,1.28-5.741,5.361-5.741,3.92,0,5.241,3.141,5.241,6.041v.14Zm4.281-1.92A2.013,2.013,0,0,0,37.241,6a2.269,2.269,0,0,0-2.2,2.061Z"/><path fill="#ffffff" d="M52.921,4.121,49.241,15.4a4.855,4.855,0,0,1-1.02,1.961,2.585,2.585,0,0,1-2.181.8H43.82V15.7h1.32c.84,0,1.04-.4,1.04-.76a3.117,3.117,0,0,0-.22-1L42.919,4.121H46.2L47.92,11.6l1.721-7.482Z"/><path
    fill="#ffffff"
    d="M66.581,0c5.141,0,7.162,4.241,7.162,7.6,0,3.781-2.581,7.382-7.122,7.382-4.661,0-7.021-3.661-7.021-7.542C59.6,4.221,61.48,0,66.581,0Zm.06,11.982c2.621,0,3.561-2.44,3.561-4.421,0-2.561-1.12-4.6-3.621-4.6-2.681,0-3.5,2.541-3.5,4.441C63.08,9.662,64.1,11.982,66.641,11.982Z"/><path fill="#ffffff" d="M82.221,14.563V8.122c0-.98-.28-1.8-1.521-1.8-1.42,0-1.62,1-1.62,2.4v5.842H76V4.121H79.12v.92a3.748,3.748,0,0,1,2.94-1.18c2.121,0,3.241,1.08,3.241,3.2v7.5Z"/><path fill="#ffffff" d="M88.059,14.563V.44h3.062V14.563Z"/><path fill="#ffffff" d="M93.9,2.82V.44H96.96V2.82Zm0,11.743V4.121H96.96V14.563Z"/><path fill="#ffffff" d="M105.981,14.563V8.122c0-.98-.28-1.8-1.521-1.8-1.421,0-1.621,1-1.621,2.4v5.842h-3.08V4.121h3.12v.92a3.75,3.75,0,0,1,2.941-1.18c2.12,0,3.24,1.08,3.24,3.2v7.5Z"/><path
    fill="#ffffff"
    d="M114.219,9.982v.12a2.349,2.349,0,0,0,2.38,2.48,2.79,2.79,0,0,0,2.641-1.86l2.32,1.2a5.879,5.879,0,0,1-5.2,3.021c-3.181,0-5.281-2.021-5.281-5.4,0-2.621,1.281-5.741,5.361-5.741,3.921,0,5.241,3.141,5.241,6.041v.14Zm4.28-1.92A2.014,2.014,0,0,0,116.419,6a2.268,2.268,0,0,0-2.2,2.061Z"/><path fill="#ffffff" d="M129.3,14.563V.44h3.521V11.583h5.521v2.981Z"/><path fill="#ffffff" d="M140.158,2.82V.44h3.062V2.82Zm0,11.743V4.121h3.062V14.563Z"/><path
    fill="#ffffff"
    d="M149,.44V5.081a3.43,3.43,0,0,1,2.98-1.26c2.5,0,4.461,1.9,4.461,5.321,0,2.681-1.18,5.7-4.561,5.7a3.755,3.755,0,0,1-3.041-1.381v1.1H146V.44Zm2.341,5.621c-1.3,0-2.421.78-2.421,3.2,0,1.661.46,3.3,2.3,3.3,2.08,0,2.221-2.42,2.221-3.341C153.44,8.282,153.259,6.061,151.339,6.061Z"/><path fill="#ffffff" d="M161.439,4.121V5.2a3.846,3.846,0,0,1,1.22-.78,5.283,5.283,0,0,1,1.8-.42v2.72l-1.021.16c-1.62.26-1.92.68-1.92,1.8v5.882h-3.062V4.121Z"/><path
    fill="#ffffff"
    d="M172.12,14.563v-.94a5.081,5.081,0,0,1-3.2,1.221,3.161,3.161,0,0,1-3.421-3.181,3.359,3.359,0,0,1,2.2-3,24.83,24.83,0,0,1,4.12-.96v-.58a1.1,1.1,0,0,0-1.18-1.26c-1.3,0-1.54.76-1.62,1.22h-3.081c0-2.3,2.12-3.241,4.4-3.241,1.8,0,4.5.48,4.5,3v6.1a2.536,2.536,0,0,0,.3,1.621Zm-2.281-4.341c-1.06.34-1.32.84-1.32,1.3a1.115,1.115,0,0,0,1.181,1.06,2.312,2.312,0,0,0,2.12-2.561v-.46Z"/><path fill="#ffffff" d="M180.6,4.121V5.2a3.846,3.846,0,0,1,1.22-.78,5.283,5.283,0,0,1,1.8-.42v2.72l-1.021.16c-1.62.26-1.92.68-1.92,1.8v5.882h-3.062V4.121Z"/><path fill="#ffffff" d="M193.78,4.121,190.1,15.4a4.856,4.856,0,0,1-1.021,1.961,2.584,2.584,0,0,1-2.18.8h-2.221V15.7H186c.84,0,1.04-.4,1.04-.76a3.141,3.141,0,0,0-.22-1l-3.041-9.823h3.28l1.721,7.482L190.5,4.121Z"/></svg>
